# xmcd CD database file
#
# Track frame offsets:
#	150
#	9154
#	26209
#	46840
#	66382
#	81810
#	98381
#	117015
#	128378
#	144431
#
# Disc length: 2130 seconds
#
# Revision: 0
# Processed by: cddbd v1.5.2PL0 Copyright (c) Steve Scherf et al.
# Submitted via: CDex 1.70beta2
#
DISCID=6f08500a
DTITLE=UNBORN - AWAKEN TO REALITY
DYEAR=2013
DGENRE=Thrash Metal
TTITLE0=INTRO
TTITLE1=BURN INSIDE
TTITLE2=CHEMOTHERAPY OF THE GOVERNMENT
TTITLE3=WALLS OF MADNESS
TTITLE4=PART OF MACHINERY
TTITLE5=THREATH OF DEATH
TTITLE6=TRAPPED BETWEEN TWO WORLDS
TTITLE7=UNDER CONTROL OF PAIN
TTITLE8=FACES IN THE MIRROR
TTITLE9=TILL MY LAST BREATH
EXTD=YEAR: 2013
EXTT0=
EXTT1=
EXTT2=
EXTT3=
EXTT4=
EXTT5=
EXTT6=
EXTT7=
EXTT8=
EXTT9=
PLAYORDER=
